<?xml version="1.0" encoding="utf-8"?>
<!-- Generator: Adobe Illustrator 24.1.1, SVG Export Plug-In . SVG Version: 6.00 Build 0)  -->
<svg version="1.1" id="Layer_1" xmlns="http://www.w3.org/2000/svg" xmlns:xlink="http://www.w3.org/1999/xlink" x="0px" y="0px"
	 viewBox="0 0 512 512" style="enable-background:new 0 0 512 512;" xml:space="preserve">
<g>
	<path d="M256,460.8c113.13,0,204.8-91.7,204.8-204.8S369.13,51.2,256,51.2C142.9,51.2,51.2,142.9,51.2,256S142.9,460.8,256,460.8z
		 M256,512C114.63,512,0,397.38,0,256C0,114.6,114.63,0,256,0c141.4,0,256,114.6,256,256C512,397.38,397.4,512,256,512z"/>
	<path d="M128.63,323.98h100.35v48.3H128.63V323.98z M279.17,323.98h100.3v48.3h-100.3V323.98z M128.55,227.35h250.93v48.3H128.55
		V227.35z M128.63,130.75h150.55v48.3H128.63V130.75z M329.35,130.75h50.17v48.3h-50.17V130.75z"/>
</g>
</svg>
