<svg width="655" height="144" viewBox="0 0 655 144" fill="none" xmlns="http://www.w3.org/2000/svg">
<path d="M239.091 40.1404C241.886 26.1064 254.203 16 268.513 16H626.297C645.264 16 659.471 33.3811 655.698 51.9689L643.516 111.969C640.678 125.951 628.384 136 614.116 136H256.564C237.642 136 223.446 118.697 227.142 100.14L239.091 40.1404Z" fill="#75B9FC"/>
<g filter="url(#filter0_di)">
<path d="M234.249 32.4388C236.909 18.8241 248.838 9 262.71 9H624.949C643.24 9 656.963 25.7264 653.39 43.6651L640.443 108.665C637.741 122.231 625.834 132 612.002 132H250.01C231.762 132 218.049 115.348 221.548 97.4388L234.249 32.4388Z" fill="#75B9FC"/>
<path d="M237.193 33.0141C239.578 20.8078 250.273 12 262.71 12H624.949C641.347 12 653.651 26.996 650.447 43.0791L637.5 108.079C635.078 120.242 624.403 129 612.002 129H250.01C233.649 129 221.355 114.071 224.492 98.0141C224.492 98.0141 224.492 98.0141 224.492 98.014L237.193 33.0141Z" stroke="#444444" stroke-width="6"/>
</g>
<g filter="url(#filter1_d)">
<path d="M13.9606 93.3923C6.97806 90.0154 3.46363 85.729 3.43596 81.6044L3.47945 80.7724L3.60196 79.995L3.80404 79.2224L4.08906 78.4554L4.45838 77.6735L4.90884 76.9059L5.44652 76.1403L6.07104 75.3717L6.77588 74.618L7.57071 73.8708L8.4444 73.1293L9.39721 72.4151L10.4309 71.7051L11.5326 71.0289L12.7158 70.3679L13.9636 69.7299L15.2787 69.1248L16.6601 68.5411L18.0983 67.994L19.5955 67.4816L21.1588 67.0019L22.7688 66.5473L24.4315 66.141L26.1422 65.7584L27.8949 65.4258L29.6897 65.1295L31.5275 64.8823L33.4033 64.6717L35.3152 64.5104L37.2603 64.3863L39.2298 64.312L41.2394 64.2871C52.0078 64.2887 61.6479 66.4042 68.5223 69.732C75.5378 73.1282 79.0492 77.4356 79.0492 81.5553C79.0492 85.6948 75.5351 90.0018 68.5213 93.3921C61.6441 96.7164 51.999 98.823 41.2271 98.823C30.4714 98.823 20.8342 96.7165 13.9606 93.3923Z" fill="#6EB92B" stroke="#434343" stroke-width="4"/>
</g>
<g filter="url(#filter2_d)">
<path d="M88.1244 129.742C80.7709 126.182 77.032 121.652 77.0041 117.279L77.0503 116.397L77.1805 115.572L77.3966 114.749L77.6984 113.929L78.0886 113.111L78.5686 112.293L79.1393 111.477L79.8004 110.665L80.5463 109.861L81.3819 109.079L82.3096 108.294L83.3108 107.534L84.3954 106.801L85.5666 106.082L86.8089 105.386L88.1238 104.721L89.5117 104.078L90.9634 103.47L92.4851 102.894L94.064 102.344L95.705 101.839L97.4015 101.359L99.1468 100.929L100.944 100.534L102.791 100.188L104.688 99.8777L106.614 99.6058L108.594 99.3952L110.615 99.2207L112.651 99.0845L114.725 99.0104L116.843 98.9851C128.15 98.9867 138.299 101.21 145.546 104.714C152.936 108.288 156.683 112.84 156.683 117.23C156.683 121.614 152.937 126.165 145.546 129.74C138.296 133.246 128.143 135.472 116.831 135.472C105.513 135.472 95.3665 133.247 88.1244 129.742Z" fill="#FFE100" stroke="#444444" stroke-width="4"/>
</g>
<g filter="url(#filter3_d)">
<mask id="path-6-inside-1" fill="white">
<path d="M92.1586 72.8617L94.0356 72.7474L95.8876 72.544L97.7102 72.2644L99.5034 71.8958L101.262 71.4509L102.991 70.9298L104.679 70.3197L106.328 69.6461L107.936 68.8962L109.505 68.0828L111.021 67.1931L112.497 66.2526L113.919 65.2358L115.289 64.1554L116.605 63.0242L117.854 61.8422L119.064 60.5966L120.194 59.2875L121.271 57.9402L122.281 56.5422L123.225 55.1059L124.09 53.6189L124.888 52.081L125.605 50.5176L126.257 48.9035L126.828 47.2639L127.307 45.5862L127.719 43.8703L128.039 42.129L128.264 40.3624L128.397 38.5703L128.45 36.7655C128.45 16.8236 111.513 0.631104 90.6518 0.631104C69.9306 0.631104 53.0993 16.5439 52.8547 36.3206C53.3427 36.2952 53.8306 36.2952 54.3557 36.2952C75.2113 36.2952 92.1525 52.4495 92.1525 72.4296V72.8617"/>
</mask>
<path d="M92.1586 72.8617L94.0356 72.7474L95.8876 72.544L97.7102 72.2644L99.5034 71.8958L101.262 71.4509L102.991 70.9298L104.679 70.3197L106.328 69.6461L107.936 68.8962L109.505 68.0828L111.021 67.1931L112.497 66.2526L113.919 65.2358L115.289 64.1554L116.605 63.0242L117.854 61.8422L119.064 60.5966L120.194 59.2875L121.271 57.9402L122.281 56.5422L123.225 55.1059L124.09 53.6189L124.888 52.081L125.605 50.5176L126.257 48.9035L126.828 47.2639L127.307 45.5862L127.719 43.8703L128.039 42.129L128.264 40.3624L128.397 38.5703L128.45 36.7655C128.45 16.8236 111.513 0.631104 90.6518 0.631104C69.9306 0.631104 53.0993 16.5439 52.8547 36.3206C53.3427 36.2952 53.8306 36.2952 54.3557 36.2952C75.2113 36.2952 92.1525 52.4495 92.1525 72.4296V72.8617" fill="#00A7EB"/>
<path d="M94.0356 72.7474L94.2787 76.74L94.3757 76.7341L94.4723 76.7235L94.0356 72.7474ZM95.8876 72.544L96.3243 76.5201L96.4094 76.5107L96.4941 76.4977L95.8876 72.544ZM97.7102 72.2644L98.3167 76.2181L98.4166 76.2028L98.5155 76.1825L97.7102 72.2644ZM99.5034 71.8958L100.309 75.8139L100.397 75.7957L100.484 75.7736L99.5034 71.8958ZM101.262 71.4509L102.243 75.3287L102.33 75.3067L102.416 75.2807L101.262 71.4509ZM102.991 70.9298L104.145 74.7596L104.249 74.7284L104.351 74.6916L102.991 70.9298ZM104.679 70.3197L106.039 74.0815L106.116 74.0537L106.192 74.0227L104.679 70.3197ZM106.328 69.6461L107.841 73.3491L107.931 73.3123L108.019 73.2713L106.328 69.6461ZM107.936 68.8962L109.627 72.5214L109.703 72.4859L109.777 72.4474L107.936 68.8962ZM109.505 68.0828L111.346 71.634L111.439 71.5857L111.53 71.5326L109.505 68.0828ZM111.021 67.1931L113.046 70.6429L113.109 70.6058L113.17 70.5665L111.021 67.1931ZM112.497 66.2526L114.646 69.626L114.737 69.5685L114.824 69.5064L112.497 66.2526ZM113.919 65.2358L116.246 68.4896L116.322 68.4349L116.396 68.3767L113.919 65.2358ZM115.289 64.1554L117.766 67.2963L117.832 67.2439L117.896 67.1888L115.289 64.1554ZM116.605 63.0242L119.212 66.0576L119.285 65.9952L119.354 65.9295L116.605 63.0242ZM117.854 61.8422L120.603 64.7475L120.664 64.6897L120.723 64.6293L117.854 61.8422ZM119.064 60.5966L121.933 63.3837L122.015 63.2994L122.092 63.2103L119.064 60.5966ZM120.194 59.2875L123.222 61.9012L123.271 61.8441L123.318 61.7851L120.194 59.2875ZM121.271 57.9402L124.395 60.4378L124.456 60.3617L124.513 60.2827L121.271 57.9402ZM122.281 56.5422L125.523 58.8847L125.575 58.813L125.624 58.7391L122.281 56.5422ZM123.225 55.1059L126.568 57.3029L126.628 57.2116L126.683 57.1172L123.225 55.1059ZM124.09 53.6189L127.548 55.6302L127.596 55.5468L127.64 55.4612L124.09 53.6189ZM124.888 52.081L128.438 53.9233L128.483 53.8369L128.524 53.7485L124.888 52.081ZM125.605 50.5176L129.241 52.1851L129.279 52.1013L129.314 52.0158L125.605 50.5176ZM126.257 48.9035L129.966 50.4017L130.002 50.3112L130.034 50.219L126.257 48.9035ZM126.828 47.2639L130.605 48.5794L130.643 48.4717L130.674 48.3621L126.828 47.2639ZM127.307 45.5862L131.153 46.6844L131.177 46.6027L131.196 46.5201L127.307 45.5862ZM127.719 43.8703L131.608 44.8042L131.634 44.6993L131.653 44.5933L127.719 43.8703ZM128.039 42.129L131.973 42.852L131.993 42.7436L132.007 42.6344L128.039 42.129ZM128.264 40.3624L132.232 40.8678L132.245 40.7634L132.253 40.6584L128.264 40.3624ZM128.397 38.5703L132.386 38.8663L132.393 38.7771L132.395 38.6877L128.397 38.5703ZM128.45 36.7655L132.448 36.8829L132.45 36.8242V36.7655H128.45ZM52.8547 36.3206L48.855 36.2711L48.8022 40.5369L53.0626 40.3152L52.8547 36.3206ZM92.4017 76.8543L94.2787 76.74L93.7924 68.7548L91.9154 68.8691L92.4017 76.8543ZM94.4723 76.7235L96.3243 76.5201L95.4509 68.5679L93.5989 68.7713L94.4723 76.7235ZM96.4941 76.4977L98.3167 76.2181L97.1036 68.3107L95.281 68.5903L96.4941 76.4977ZM98.5155 76.1825L100.309 75.8139L98.698 67.9777L96.9048 68.3463L98.5155 76.1825ZM100.484 75.7736L102.243 75.3287L100.281 67.5731L98.5223 68.018L100.484 75.7736ZM102.416 75.2807L104.145 74.7596L101.837 67.1L100.108 67.6211L102.416 75.2807ZM104.351 74.6916L106.039 74.0815L103.319 66.5579L101.631 67.168L104.351 74.6916ZM106.192 74.0227L107.841 73.3491L104.815 65.9431L103.166 66.6167L106.192 74.0227ZM108.019 73.2713L109.627 72.5214L106.245 65.271L104.637 66.0209L108.019 73.2713ZM109.777 72.4474L111.346 71.634L107.664 64.5316L106.095 65.345L109.777 72.4474ZM111.53 71.5326L113.046 70.6429L108.996 63.7433L107.48 64.633L111.53 71.5326ZM113.17 70.5665L114.646 69.626L110.347 62.8792L108.871 63.8197L113.17 70.5665ZM114.824 69.5064L116.246 68.4896L111.592 61.982L110.17 62.9988L114.824 69.5064ZM116.396 68.3767L117.766 67.2963L112.812 61.0146L111.442 62.095L116.396 68.3767ZM117.896 67.1888L119.212 66.0576L113.998 59.9908L112.682 61.122L117.896 67.1888ZM119.354 65.9295L120.603 64.7475L115.105 58.9369L113.856 60.1189L119.354 65.9295ZM120.723 64.6293L121.933 63.3837L116.195 57.8095L114.985 59.0551L120.723 64.6293ZM122.092 63.2103L123.222 61.9012L117.166 56.6738L116.036 57.9829L122.092 63.2103ZM123.318 61.7851L124.395 60.4378L118.147 55.4426L117.07 56.7899L123.318 61.7851ZM124.513 60.2827L125.523 58.8847L119.039 54.1997L118.029 55.5977L124.513 60.2827ZM125.624 58.7391L126.568 57.3029L119.882 52.9089L118.938 54.3452L125.624 58.7391ZM126.683 57.1172L127.548 55.6302L120.632 51.6076L119.767 53.0946L126.683 57.1172ZM127.64 55.4612L128.438 53.9233L121.338 50.2387L120.539 51.7766L127.64 55.4612ZM128.524 53.7485L129.241 52.1851L121.969 48.8501L121.252 50.4135L128.524 53.7485ZM129.314 52.0158L129.966 50.4017L122.548 47.4053L121.896 49.0194L129.314 52.0158ZM130.034 50.219L130.605 48.5794L123.05 45.9484L122.479 47.588L130.034 50.219ZM130.674 48.3621L131.153 46.6844L123.461 44.4881L122.982 46.1658L130.674 48.3621ZM131.196 46.5201L131.608 44.8042L123.83 42.9364L123.418 44.6523L131.196 46.5201ZM131.653 44.5933L131.973 42.852L124.105 41.406L123.785 43.1473L131.653 44.5933ZM132.007 42.6344L132.232 40.8678L124.296 39.857L124.071 41.6236L132.007 42.6344ZM132.253 40.6584L132.386 38.8663L124.408 38.2743L124.275 40.0664L132.253 40.6584ZM132.395 38.6877L132.448 36.8829L124.452 36.6481L124.399 38.4529L132.395 38.6877ZM132.45 36.7655C132.45 14.4467 113.551 -3.3689 90.6518 -3.3689V4.6311C109.475 4.6311 124.45 19.2005 124.45 36.7655H132.45ZM90.6518 -3.3689C67.9097 -3.3689 49.1287 14.1395 48.855 36.2711L56.8544 36.3701C57.0698 18.9483 71.9514 4.6311 90.6518 4.6311V-3.3689ZM53.0626 40.3152C53.4288 40.2961 53.8114 40.2952 54.3557 40.2952V32.2952C53.8498 32.2952 53.2566 32.2943 52.6468 32.326L53.0626 40.3152ZM54.3557 40.2952C73.1767 40.2952 88.1525 54.8292 88.1525 72.4296H96.1525C96.1525 50.0698 77.2459 32.2952 54.3557 32.2952V40.2952ZM88.1525 72.4296V72.8617H96.1525V72.4296H88.1525Z" fill="#444444" mask="url(#path-6-inside-1)"/>
</g>
<g filter="url(#filter4_d)">
<path d="M167.215 106.607C166.292 86.9866 149.529 71.4383 129.097 71.1252C130.407 54.0047 145.365 40.3842 163.779 40.3842C183.088 40.3842 198.549 55.3145 198.566 73.5485L198.515 75.2385L198.389 76.8875L198.19 78.5068L197.89 80.0936L197.526 81.6637L197.077 83.2066L196.561 84.7171L195.976 86.1839L195.314 87.6164L194.572 89.035L193.784 90.3984L192.923 91.7109L191.988 93.0024L191.013 94.2455L189.958 95.4341L188.861 96.5915L187.714 97.6765L186.495 98.721L185.233 99.711L183.927 100.648L182.585 101.511L181.169 102.332L179.737 103.09L178.256 103.773L176.731 104.399L175.172 104.953L173.581 105.435L171.956 105.856L170.31 106.192L168.623 106.458L167.215 106.607Z" fill="#E60012" stroke="#444444" stroke-width="4"/>
</g>
<path d="M241.471 42.2836C241.287 41.483 242.435 21.568 255.211 18.6342C267.986 15.7003 276.585 19.2053 276.769 20.006C276.953 20.8066 269.843 17.0181 257.068 19.952C244.292 22.8859 241.654 43.0843 241.471 42.2836Z" fill="#444444"/>
<path d="M630.719 95.024C631.017 95.7896 632.763 115.661 620.547 120.413C608.33 125.165 599.314 122.941 599.016 122.176C598.719 121.41 606.302 124.13 618.518 119.378C630.735 114.626 630.422 94.2584 630.719 95.024Z" fill="#444444"/>
<path d="M618.594 120.791C618.588 120.354 618.228 120.005 617.791 120.011C617.354 120.018 617.005 120.377 617.012 120.814L617.076 125.231C617.083 125.668 617.442 126.017 617.879 126.011C618.316 126.004 618.665 125.645 618.659 125.208L618.594 120.791Z" fill="#444444"/>
<path d="M617.012 120.814C617.005 120.377 617.354 120.018 617.791 120.012C618.228 120.005 618.588 120.354 618.594 120.791L618.659 125.208C618.665 125.645 618.316 126.005 617.879 126.011C617.442 126.017 617.083 125.668 617.076 125.231L617.012 120.814Z" fill="#444444"/>
<path d="M613.012 122.791C613.005 122.354 613.354 121.995 613.791 121.988C614.228 121.982 614.588 122.331 614.594 122.768L614.659 127.185C614.665 127.622 614.316 127.981 613.879 127.988C613.442 127.994 613.083 127.645 613.076 127.208L613.012 122.791Z" fill="#444444"/>
<path d="M617.012 120.814C617.005 120.377 617.354 120.018 617.791 120.012C618.228 120.005 618.588 120.354 618.594 120.791L618.659 125.208C618.665 125.645 618.316 126.005 617.879 126.011C617.442 126.017 617.083 125.668 617.076 125.231L617.012 120.814Z" fill="#444444"/>
<path d="M613.012 122.791C613.005 122.354 613.354 121.995 613.791 121.988C614.228 121.982 614.588 122.331 614.594 122.768L614.659 127.185C614.665 127.622 614.316 127.981 613.879 127.988C613.442 127.994 613.083 127.645 613.076 127.208L613.012 122.791Z" fill="#444444"/>
<path d="M626.594 116.791C626.588 116.354 626.228 116.005 625.791 116.011C625.354 116.018 625.005 116.377 625.012 116.814L625.076 121.231C625.083 121.668 625.442 122.017 625.879 122.011C626.316 122.004 626.665 121.645 626.659 121.208L626.594 116.791Z" fill="#444444"/>
<mask id="mask0" mask-type="alpha" maskUnits="userSpaceOnUse" x="244" y="37" width="387" height="68">
<path d="M256.187 37H273.859C275.515 37 276.937 37.6094 278.124 38.8282C279.281 39.9844 279.859 41.3126 279.859 42.8126C279.859 43.2188 279.812 43.6719 279.718 44.1719L275.406 67.9844C275.093 69.7657 274.25 71.2344 272.874 72.3907C271.5 73.5469 269.921 74.125 268.14 74.125H257.593L252.109 104.266H244L256.187 37ZM265.421 66.5313C266.109 66.5313 266.718 66.3126 267.25 65.875C267.75 65.4688 268.062 64.9376 268.187 64.2813L271.515 46.7969V46.5157C271.515 45.9532 271.328 45.4844 270.953 45.1094C270.578 44.7657 270.124 44.5938 269.593 44.5938H262.89L258.812 66.5313H265.421ZM268.14 104.219L290.312 37H298.374L296.265 104.219H288.624L289.187 93.1563H280L276.718 104.219H268.14ZM289.562 85.5626L291.062 55.7969L282.25 85.5626H289.562ZM312.484 37H330.156C331.812 37 333.234 37.6094 334.421 38.8282C335.578 39.9844 336.156 41.3126 336.156 42.8126C336.156 43.2188 336.109 43.6719 336.015 44.1719L332.078 65.3594C331.515 68.2969 329.781 70.1719 326.874 70.9844C327.968 71.3907 328.796 72.1094 329.359 73.1407C329.796 73.9532 330.015 74.8594 330.015 75.8594C330.015 76.0782 330 76.3126 329.968 76.5626C329.968 77.0313 329.953 77.3907 329.921 77.6407L326.218 98.0778C325.906 99.8598 325.062 101.328 323.687 102.485C322.312 103.641 320.734 104.219 318.953 104.219H300.296L312.484 37ZM315.203 66.5313H321.718C322.406 66.5313 323.015 66.2969 323.546 65.8282C324.046 65.3907 324.359 64.8438 324.484 64.1876L327.812 46.7969V46.5157C327.812 45.9532 327.624 45.4844 327.25 45.1094C326.874 44.7657 326.421 44.5938 325.89 44.5938H319.187L315.203 66.5313ZM309.765 96.6248H316.234C316.921 96.6248 317.531 96.4068 318.062 95.9688C318.562 95.5626 318.874 95.0313 319 94.375L322.187 76.7032V76.4688C322.187 75.9376 322 75.4844 321.624 75.1094C321.25 74.7344 320.796 74.5469 320.265 74.5469H313.75L309.765 96.6248ZM340.468 96.7188H350.406L349.046 104.219H330.812L343 37H351.156L340.468 96.7188ZM353.64 98.0778V96.9068L363.296 43.0938C363.609 41.3438 364.468 39.8907 365.874 38.7344C367.281 37.5782 368.859 37 370.609 37H382C383.624 37 385.015 37.5938 386.171 38.7813C387.359 39.9688 387.953 41.4219 387.953 43.1407C387.953 43.5782 387.921 43.9219 387.859 44.1719L378.203 98.0778C377.89 99.8278 377.015 101.297 375.578 102.485C374.171 103.641 372.578 104.219 370.796 104.219H359.593C357.937 104.219 356.531 103.625 355.374 102.438C354.218 101.219 353.64 99.7658 353.64 98.0778ZM361.89 94.375V94.6094C361.89 95.1407 362.078 95.6094 362.453 96.0157C362.828 96.4218 363.296 96.6248 363.859 96.6248H368.171C369.796 96.6248 370.75 95.8438 371.031 94.2813L379.609 46.7969V46.5157C379.609 45.9532 379.421 45.4844 379.046 45.1094C378.671 44.7657 378.203 44.5938 377.64 44.5938H373.281C372.624 44.5938 372.015 44.8126 371.453 45.25C370.921 45.6563 370.593 46.1719 370.468 46.7969L361.89 94.375ZM407.218 37H414.859L412.515 85.4219L426.765 37H435.343L413.218 104.219H404.64L407.218 37ZM420.765 104.219L442.937 37H451L448.89 104.219H441.25L441.812 93.1563H432.624L429.343 104.219H420.765ZM442.187 85.5626L443.687 55.7969L434.874 85.5626H442.187ZM452.874 104.219L465.109 37H473.171L467.921 65.8282H476.593L481.843 37H489.906L477.718 104.219H469.609L475.234 73.3282H466.562L460.984 104.219H452.874ZM481.703 104.219L503.874 37H511.937L509.828 104.219H502.187L502.75 93.1563H493.562L490.281 104.219H481.703ZM503.124 85.5626L504.624 55.7969L495.812 85.5626H503.124ZM513.812 104.219L526 37H534.109C536.546 61.25 537.765 78.3594 537.765 88.3282C538.078 79.5157 540.515 62.4063 545.078 37H553.187L541 104.219H532.89C530.484 80.0626 529.281 63.3594 529.281 54.1094C528.968 61.8594 526.531 78.5626 521.968 104.219H513.812ZM554.734 104.219H546.624L558.859 37H566.921L554.734 104.219ZM558.765 104.219L580.937 37H589L586.89 104.219H579.25L579.812 93.1563H570.624L567.343 104.219H558.765ZM580.187 85.5626L581.687 55.7969L572.874 85.5626H580.187ZM590.874 104.219L603.062 37H611.171C613.609 61.25 614.828 78.3594 614.828 88.3282C615.14 79.5157 617.578 62.4063 622.14 37H630.25L618.062 104.219H609.953C607.546 80.0626 606.343 63.3594 606.343 54.1094C606.031 61.8594 603.593 78.5626 599.031 104.219H590.874Z" fill="white"/>
</mask>
<g mask="url(#mask0)">
<path d="M256.187 37H273.859C275.515 37 276.937 37.6094 278.124 38.8282C279.281 39.9844 279.859 41.3126 279.859 42.8126C279.859 43.2188 279.812 43.6719 279.718 44.1719L275.406 67.9844C275.093 69.7657 274.25 71.2344 272.874 72.3907C271.5 73.5469 269.921 74.125 268.14 74.125H257.593L252.109 104.266H244L256.187 37ZM265.421 66.5313C266.109 66.5313 266.718 66.3126 267.25 65.875C267.75 65.4688 268.062 64.9376 268.187 64.2813L271.515 46.7969V46.5157C271.515 45.9532 271.328 45.4844 270.953 45.1094C270.578 44.7657 270.124 44.5938 269.593 44.5938H262.89L258.812 66.5313H265.421ZM268.14 104.219L290.312 37H298.374L296.265 104.219H288.624L289.187 93.1563H280L276.718 104.219H268.14ZM289.562 85.5626L291.062 55.7969L282.25 85.5626H289.562ZM312.484 37H330.156C331.812 37 333.234 37.6094 334.421 38.8282C335.578 39.9844 336.156 41.3126 336.156 42.8126C336.156 43.2188 336.109 43.6719 336.015 44.1719L332.078 65.3594C331.515 68.2969 329.781 70.1719 326.874 70.9844C327.968 71.3907 328.796 72.1094 329.359 73.1407C329.796 73.9532 330.015 74.8594 330.015 75.8594C330.015 76.0782 330 76.3126 329.968 76.5626C329.968 77.0313 329.953 77.3907 329.921 77.6407L326.218 98.0778C325.906 99.8598 325.062 101.328 323.687 102.485C322.312 103.641 320.734 104.219 318.953 104.219H300.296L312.484 37ZM315.203 66.5313H321.718C322.406 66.5313 323.015 66.2969 323.546 65.8282C324.046 65.3907 324.359 64.8438 324.484 64.1876L327.812 46.7969V46.5157C327.812 45.9532 327.624 45.4844 327.25 45.1094C326.874 44.7657 326.421 44.5938 325.89 44.5938H319.187L315.203 66.5313ZM309.765 96.6248H316.234C316.921 96.6248 317.531 96.4068 318.062 95.9688C318.562 95.5626 318.874 95.0313 319 94.375L322.187 76.7032V76.4688C322.187 75.9376 322 75.4844 321.624 75.1094C321.25 74.7344 320.796 74.5469 320.265 74.5469H313.75L309.765 96.6248ZM340.468 96.7188H350.406L349.046 104.219H330.812L343 37H351.156L340.468 96.7188ZM353.64 98.0778V96.9068L363.296 43.0938C363.609 41.3438 364.468 39.8907 365.874 38.7344C367.281 37.5782 368.859 37 370.609 37H382C383.624 37 385.015 37.5938 386.171 38.7813C387.359 39.9688 387.953 41.4219 387.953 43.1407C387.953 43.5782 387.921 43.9219 387.859 44.1719L378.203 98.0778C377.89 99.8278 377.015 101.297 375.578 102.485C374.171 103.641 372.578 104.219 370.796 104.219H359.593C357.937 104.219 356.531 103.625 355.374 102.438C354.218 101.219 353.64 99.7658 353.64 98.0778ZM361.89 94.375V94.6094C361.89 95.1407 362.078 95.6094 362.453 96.0157C362.828 96.4218 363.296 96.6248 363.859 96.6248H368.171C369.796 96.6248 370.75 95.8438 371.031 94.2813L379.609 46.7969V46.5157C379.609 45.9532 379.421 45.4844 379.046 45.1094C378.671 44.7657 378.203 44.5938 377.64 44.5938H373.281C372.624 44.5938 372.015 44.8126 371.453 45.25C370.921 45.6563 370.593 46.1719 370.468 46.7969L361.89 94.375ZM407.218 37H414.859L412.515 85.4219L426.765 37H435.343L413.218 104.219H404.64L407.218 37ZM420.765 104.219L442.937 37H451L448.89 104.219H441.25L441.812 93.1563H432.624L429.343 104.219H420.765ZM442.187 85.5626L443.687 55.7969L434.874 85.5626H442.187ZM452.874 104.219L465.109 37H473.171L467.921 65.8282H476.593L481.843 37H489.906L477.718 104.219H469.609L475.234 73.3282H466.562L460.984 104.219H452.874ZM481.703 104.219L503.874 37H511.937L509.828 104.219H502.187L502.75 93.1563H493.562L490.281 104.219H481.703ZM503.124 85.5626L504.624 55.7969L495.812 85.5626H503.124ZM513.812 104.219L526 37H534.109C536.546 61.25 537.765 78.3594 537.765 88.3282C538.078 79.5157 540.515 62.4063 545.078 37H553.187L541 104.219H532.89C530.484 80.0626 529.281 63.3594 529.281 54.1094C528.968 61.8594 526.531 78.5626 521.968 104.219H513.812ZM554.734 104.219H546.624L558.859 37H566.921L554.734 104.219ZM558.765 104.219L580.937 37H589L586.89 104.219H579.25L579.812 93.1563H570.624L567.343 104.219H558.765ZM580.187 85.5626L581.687 55.7969L572.874 85.5626H580.187ZM590.874 104.219L603.062 37H611.171C613.609 61.25 614.828 78.3594 614.828 88.3282C615.14 79.5157 617.578 62.4063 622.14 37H630.25L618.062 104.219H609.953C607.546 80.0626 606.343 63.3594 606.343 54.1094C606.031 61.8594 603.593 78.5626 599.031 104.219H590.874Z" fill="white" stroke="#444444"/>
</g>
<defs>
<filter id="filter0_di" x="217" y="9" width="440.958" height="131" filterUnits="userSpaceOnUse" color-interpolation-filters="sRGB">
<feFlood flood-opacity="0" result="BackgroundImageFix"/>
<feColorMatrix in="SourceAlpha" type="matrix" values="0 0 0 0 0 0 0 0 0 0 0 0 0 0 0 0 0 0 127 0"/>
<feOffset dy="4"/>
<feGaussianBlur stdDeviation="2"/>
<feColorMatrix type="matrix" values="0 0 0 0 0 0 0 0 0 0 0 0 0 0 0 0 0 0 0.25 0"/>
<feBlend mode="normal" in2="BackgroundImageFix" result="effect1_dropShadow"/>
<feBlend mode="normal" in="SourceGraphic" in2="effect1_dropShadow" result="shape"/>
<feColorMatrix in="SourceAlpha" type="matrix" values="0 0 0 0 0 0 0 0 0 0 0 0 0 0 0 0 0 0 127 0" result="hardAlpha"/>
<feOffset dy="4"/>
<feGaussianBlur stdDeviation="2"/>
<feComposite in2="hardAlpha" operator="arithmetic" k2="-1" k3="1"/>
<feColorMatrix type="matrix" values="0 0 0 0 0 0 0 0 0 0 0 0 0 0 0 0 0 0 0.25 0"/>
<feBlend mode="normal" in2="shape" result="effect2_innerShadow"/>
</filter>
<filter id="filter1_d" x="-2.56421" y="62.2871" width="87.6134" height="46.5359" filterUnits="userSpaceOnUse" color-interpolation-filters="sRGB">
<feFlood flood-opacity="0" result="BackgroundImageFix"/>
<feColorMatrix in="SourceAlpha" type="matrix" values="0 0 0 0 0 0 0 0 0 0 0 0 0 0 0 0 0 0 127 0"/>
<feOffset dy="4"/>
<feGaussianBlur stdDeviation="2"/>
<feColorMatrix type="matrix" values="0 0 0 0 0 0 0 0 0 0 0 0 0 0 0 0 0 0 0.25 0"/>
<feBlend mode="normal" in2="BackgroundImageFix" result="effect1_dropShadow"/>
<feBlend mode="normal" in="SourceGraphic" in2="effect1_dropShadow" result="shape"/>
</filter>
<filter id="filter2_d" x="71.0039" y="96.9851" width="91.6791" height="48.4869" filterUnits="userSpaceOnUse" color-interpolation-filters="sRGB">
<feFlood flood-opacity="0" result="BackgroundImageFix"/>
<feColorMatrix in="SourceAlpha" type="matrix" values="0 0 0 0 0 0 0 0 0 0 0 0 0 0 0 0 0 0 127 0"/>
<feOffset dy="4"/>
<feGaussianBlur stdDeviation="2"/>
<feColorMatrix type="matrix" values="0 0 0 0 0 0 0 0 0 0 0 0 0 0 0 0 0 0 0.25 0"/>
<feBlend mode="normal" in2="BackgroundImageFix" result="effect1_dropShadow"/>
<feBlend mode="normal" in="SourceGraphic" in2="effect1_dropShadow" result="shape"/>
</filter>
<filter id="filter3_d" x="48.8547" y="0.631104" width="83.5953" height="80.2306" filterUnits="userSpaceOnUse" color-interpolation-filters="sRGB">
<feFlood flood-opacity="0" result="BackgroundImageFix"/>
<feColorMatrix in="SourceAlpha" type="matrix" values="0 0 0 0 0 0 0 0 0 0 0 0 0 0 0 0 0 0 127 0"/>
<feOffset dy="4"/>
<feGaussianBlur stdDeviation="2"/>
<feColorMatrix type="matrix" values="0 0 0 0 0 0 0 0 0 0 0 0 0 0 0 0 0 0 0.25 0"/>
<feBlend mode="normal" in2="BackgroundImageFix" result="effect1_dropShadow"/>
<feBlend mode="normal" in="SourceGraphic" in2="effect1_dropShadow" result="shape"/>
</filter>
<filter id="filter4_d" x="123.006" y="38.3842" width="81.56" height="78.3618" filterUnits="userSpaceOnUse" color-interpolation-filters="sRGB">
<feFlood flood-opacity="0" result="BackgroundImageFix"/>
<feColorMatrix in="SourceAlpha" type="matrix" values="0 0 0 0 0 0 0 0 0 0 0 0 0 0 0 0 0 0 127 0"/>
<feOffset dy="4"/>
<feGaussianBlur stdDeviation="2"/>
<feColorMatrix type="matrix" values="0 0 0 0 0 0 0 0 0 0 0 0 0 0 0 0 0 0 0.25 0"/>
<feBlend mode="normal" in2="BackgroundImageFix" result="effect1_dropShadow"/>
<feBlend mode="normal" in="SourceGraphic" in2="effect1_dropShadow" result="shape"/>
</filter>
</defs>
</svg>
